# xmcd
#
# Track frame offsets: 
#        150
#        21680
#        41882
#        59865
#        77060
#        93442
#        113315
#        130960
#        145932
#        168547
#
# Disc length: 2504 seconds
#
# Revision: 2
# Processed by: cddbd v1.5.1PL0 Copyright (c) Steve Scherf et al.
# Submitted via: ExactAudioCopy v0.95b2
#
DISCID=9009c60a
DTITLE=Etta James - Respect yourself
DYEAR=1900
DGENRE=
TTITLE0=Respect Yourself
TTITLE1=I'd Rather Go Blind
TTITLE2=Shake Yo' Bottle
TTITLE3=Dust My Broom
TTITLE4=Summer Heat
TTITLE5=Drown In My Own Tears
TTITLE6=Can't Turn You Loose
TTITLE7=Rock Me Baby
TTITLE8=Stormy Monday
TTITLE9=Baby what you want me to do
EXTD=
EXTT0=
EXTT1=
EXTT2=
EXTT3=
EXTT4=
EXTT5=
EXTT6=
EXTT7=
EXTT8=
EXTT9=
PLAYORDER=
